<svg xmlns="http://www.w3.org/2000/svg" xmlns:xlink="http://www.w3.org/1999/xlink" width="679" zoomAndPan="magnify" viewBox="0 0 509.25 123.750003" height="165" preserveAspectRatio="xMidYMid meet" version="1.0"><defs><g/><clipPath id="12ca168a82"><path d="M 88 24 L 155.074219 24 L 155.074219 98 L 88 98 Z M 88 24 " clip-rule="nonzero"/></clipPath><clipPath id="a98fed389b"><path d="M 0.140625 48 L 68 48 L 68 121 L 0.140625 121 Z M 0.140625 48 " clip-rule="nonzero"/></clipPath><clipPath id="0941707816"><path d="M 4 98 L 27 98 L 27 122.753906 L 4 122.753906 Z M 4 98 " clip-rule="nonzero"/></clipPath></defs><path fill="#1d1d1b" d="M 87.472656 71.996094 C 89.773438 73.875 92.382812 75.4375 95.242188 76.601562 L 88.3125 93.605469 C 86.09375 92.699219 83.96875 91.644531 81.945312 90.457031 " fill-opacity="1" fill-rule="nonzero"/><path fill="#1d1d1b" d="M 77.671875 39.980469 C 76.859375 42.710938 76.417969 45.605469 76.417969 48.601562 C 76.417969 57.863281 80.574219 66.359375 87.472656 71.996094 " fill-opacity="1" fill-rule="nonzero"/><path fill="#a8543c" d="M 60.464844 33.476562 C 66.839844 14.074219 85.125 0.0234375 106.636719 0.0234375 C 113.191406 0.0234375 119.554688 1.308594 125.546875 3.84375 L 118.398438 20.75 C 114.675781 19.175781 110.71875 18.378906 106.636719 18.378906 C 92.96875 18.378906 81.386719 27.5 77.667969 39.976562 " fill-opacity="1" fill-rule="nonzero"/><g clip-path="url(#12ca168a82)"><path fill="#1d1d1b" d="M 106.636719 97.183594 C 100.304688 97.183594 94.136719 95.980469 88.3125 93.605469 L 95.242188 76.601562 C 98.855469 78.074219 102.691406 78.820312 106.636719 78.820312 C 117.417969 78.820312 127.460938 73.007812 132.84375 63.652344 C 135.46875 59.101562 136.855469 53.894531 136.855469 48.601562 C 136.855469 43.3125 135.46875 38.101562 132.84375 33.546875 L 148.75 24.382812 C 152.976562 31.71875 155.214844 40.09375 155.214844 48.601562 C 155.214844 57.113281 152.984375 65.480469 148.761719 72.816406 C 140.109375 87.84375 123.96875 97.183594 106.640625 97.183594 Z M 106.636719 97.183594 " fill-opacity="1" fill-rule="nonzero"/></g><path fill="#cfcec6" d="M 132.839844 33.546875 C 129.5625 27.851562 124.429688 23.308594 118.390625 20.757812 L 125.542969 3.847656 C 135.238281 7.945312 143.480469 15.242188 148.746094 24.386719 L 132.835938 33.554688 Z M 132.839844 33.546875 " fill-opacity="1" fill-rule="nonzero"/><path fill="#1d1d1b" d="M 142.808594 77.316406 L 148.757812 97.183594 L 130.90625 88.527344 " fill-opacity="1" fill-rule="nonzero"/><path fill="#1d1d1b" d="M 148.757812 99.332031 C 148.4375 99.332031 148.117188 99.261719 147.820312 99.113281 L 129.96875 90.457031 C 128.898438 89.941406 128.453125 88.65625 128.96875 87.585938 C 129.484375 86.515625 130.773438 86.070312 131.84375 86.585938 L 145.292969 93.109375 L 140.75 77.925781 C 140.40625 76.789062 141.050781 75.589844 142.191406 75.246094 C 143.328125 74.902344 144.527344 75.550781 144.871094 76.691406 L 150.820312 96.558594 C 151.066406 97.375 150.800781 98.257812 150.152344 98.8125 C 149.753906 99.148438 149.257812 99.320312 148.761719 99.320312 Z M 148.757812 99.332031 " fill-opacity="1" fill-rule="nonzero"/><path fill="#cfcec6" d="M 67.042969 117.28125 L 60.113281 100.277344 C 71.550781 95.617188 78.9375 84.628906 78.9375 72.28125 C 78.9375 55.617188 65.382812 42.0625 48.71875 42.0625 C 44.636719 42.0625 40.679688 42.859375 36.957031 44.433594 L 29.808594 27.523438 C 35.800781 24.988281 42.164062 23.703125 48.71875 23.703125 C 75.503906 23.703125 97.300781 45.5 97.300781 72.285156 C 97.300781 92.132812 85.425781 109.796875 67.042969 117.285156 Z M 67.042969 117.28125 " fill-opacity="1" fill-rule="nonzero"/><g clip-path="url(#a98fed389b)"><path fill="#1d1d1b" d="M 48.71875 120.859375 C 31.386719 120.859375 15.25 111.523438 6.59375 96.492188 C 2.371094 89.15625 0.140625 80.785156 0.140625 72.28125 C 0.140625 63.777344 2.371094 55.398438 6.597656 48.0625 L 22.511719 57.226562 C 19.886719 61.78125 18.5 66.988281 18.5 72.28125 C 18.5 77.570312 19.886719 82.777344 22.503906 87.324219 C 27.890625 96.679688 37.9375 102.492188 48.71875 102.492188 C 52.667969 102.492188 56.5 101.746094 60.113281 100.273438 L 67.042969 117.277344 C 61.21875 119.652344 55.054688 120.855469 48.71875 120.855469 Z M 48.71875 120.859375 " fill-opacity="1" fill-rule="nonzero"/></g><path fill="#a8543c" d="M 22.511719 57.226562 L 6.597656 48.058594 C 11.867188 38.914062 20.109375 31.621094 29.808594 27.519531 L 36.957031 44.429688 C 30.925781 46.980469 25.792969 51.523438 22.511719 57.222656 Z M 22.511719 57.226562 " fill-opacity="1" fill-rule="nonzero"/><path fill="#1d1d1b" d="M 12.546875 100.886719 L 6.597656 120.757812 L 24.449219 112.101562 " fill-opacity="1" fill-rule="nonzero"/><g clip-path="url(#0941707816)"><path fill="#1d1d1b" d="M 6.597656 122.90625 C 6.097656 122.90625 5.601562 122.730469 5.207031 122.394531 C 4.558594 121.839844 4.292969 120.953125 4.539062 120.140625 L 10.488281 100.273438 C 10.828125 99.132812 12.027344 98.484375 13.167969 98.828125 C 14.308594 99.171875 14.953125 100.367188 14.613281 101.507812 L 10.066406 116.691406 L 23.519531 110.167969 C 24.585938 109.648438 25.875 110.097656 26.390625 111.167969 C 26.910156 112.238281 26.460938 113.523438 25.390625 114.039062 L 7.539062 122.695312 C 7.242188 122.84375 6.921875 122.914062 6.605469 122.914062 Z M 6.597656 122.90625 " fill-opacity="1" fill-rule="nonzero"/></g><g fill="#1d1d1b" fill-opacity="1"><g transform="translate(178.756637, 51.913892)"><g><path d="M 26.375 -14.296875 C 26.375 -11.847656 25.988281 -9.71875 25.21875 -7.90625 C 24.445312 -6.09375 23.367188 -4.582031 21.984375 -3.375 C 20.597656 -2.164062 18.941406 -1.257812 17.015625 -0.65625 C 15.085938 -0.0507812 12.972656 0.25 10.671875 0.25 C 9.515625 0.25 8.304688 0.1875 7.046875 0.0625 C 5.785156 -0.0625 4.671875 -0.25 3.703125 -0.5 L 3.703125 -28.015625 C 4.671875 -28.296875 5.785156 -28.492188 7.046875 -28.609375 C 8.304688 -28.734375 9.515625 -28.796875 10.671875 -28.796875 C 12.972656 -28.796875 15.085938 -28.492188 17.015625 -27.890625 C 18.941406 -27.285156 20.597656 -26.378906 21.984375 -25.171875 C 23.367188 -23.960938 24.445312 -22.453125 25.21875 -20.640625 C 25.988281 -18.828125 26.375 -16.710938 26.375 -14.296875 Z M 6.515625 -2.46875 C 6.671875 -2.445312 7.085938 -2.394531 7.765625 -2.3125 C 8.441406 -2.226562 9.519531 -2.1875 11 -2.1875 C 13.0625 -2.1875 14.859375 -2.46875 16.390625 -3.03125 C 17.929688 -3.59375 19.222656 -4.394531 20.265625 -5.4375 C 21.316406 -6.476562 22.101562 -7.75 22.625 -9.25 C 23.144531 -10.75 23.40625 -12.429688 23.40625 -14.296875 C 23.40625 -16.160156 23.144531 -17.832031 22.625 -19.3125 C 22.101562 -20.800781 21.316406 -22.066406 20.265625 -23.109375 C 19.222656 -24.160156 17.929688 -24.96875 16.390625 -25.53125 C 14.859375 -26.09375 13.0625 -26.375 11 -26.375 C 9.519531 -26.375 8.441406 -26.332031 7.765625 -26.25 C 7.085938 -26.164062 6.671875 -26.109375 6.515625 -26.078125 Z M 6.515625 -2.46875 "/></g></g></g><g fill="#1d1d1b" fill-opacity="1"><g transform="translate(207.668193, 51.913892)"><g><path d="M 22.90625 0 C 22.382812 -1.394531 21.890625 -2.738281 21.421875 -4.03125 C 20.953125 -5.320312 20.5 -6.585938 20.0625 -7.828125 L 6.1875 -7.828125 C 5.71875 -6.585938 5.25 -5.320312 4.78125 -4.03125 C 4.3125 -2.738281 3.832031 -1.394531 3.34375 0 L 0.40625 0 C 1.507812 -2.96875 2.539062 -5.734375 3.5 -8.296875 C 4.457031 -10.867188 5.394531 -13.300781 6.3125 -15.59375 C 7.238281 -17.882812 8.15625 -20.085938 9.0625 -22.203125 C 9.96875 -24.316406 10.929688 -26.429688 11.953125 -28.546875 L 14.421875 -28.546875 C 15.441406 -26.429688 16.40625 -24.316406 17.3125 -22.203125 C 18.21875 -20.085938 19.128906 -17.882812 20.046875 -15.59375 C 20.960938 -13.300781 21.898438 -10.867188 22.859375 -8.296875 C 23.828125 -5.734375 24.875 -2.96875 26 0 Z M 13.109375 -25.34375 C 12.054688 -22.976562 11.039062 -20.570312 10.0625 -18.125 C 9.09375 -15.6875 8.085938 -13.050781 7.046875 -10.21875 L 19.203125 -10.21875 C 18.160156 -13.050781 17.144531 -15.6875 16.15625 -18.125 C 15.164062 -20.570312 14.148438 -22.976562 13.109375 -25.34375 Z M 13.109375 -25.34375 "/></g></g></g><g fill="#1d1d1b" fill-opacity="1"><g transform="translate(234.067488, 51.913892)"><g><path d="M 21.84375 -28.546875 L 21.84375 -26.125 L 12.6875 -26.125 L 12.6875 0 L 9.890625 0 L 9.890625 -26.125 L 0.734375 -26.125 L 0.734375 -28.546875 Z M 21.84375 -28.546875 "/></g></g></g><g fill="#1d1d1b" fill-opacity="1"><g transform="translate(256.636631, 51.913892)"><g><path d="M 22.90625 0 C 22.382812 -1.394531 21.890625 -2.738281 21.421875 -4.03125 C 20.953125 -5.320312 20.5 -6.585938 20.0625 -7.828125 L 6.1875 -7.828125 C 5.71875 -6.585938 5.25 -5.320312 4.78125 -4.03125 C 4.3125 -2.738281 3.832031 -1.394531 3.34375 0 L 0.40625 0 C 1.507812 -2.96875 2.539062 -5.734375 3.5 -8.296875 C 4.457031 -10.867188 5.394531 -13.300781 6.3125 -15.59375 C 7.238281 -17.882812 8.15625 -20.085938 9.0625 -22.203125 C 9.96875 -24.316406 10.929688 -26.429688 11.953125 -28.546875 L 14.421875 -28.546875 C 15.441406 -26.429688 16.40625 -24.316406 17.3125 -22.203125 C 18.21875 -20.085938 19.128906 -17.882812 20.046875 -15.59375 C 20.960938 -13.300781 21.898438 -10.867188 22.859375 -8.296875 C 23.828125 -5.734375 24.875 -2.96875 26 0 Z M 13.109375 -25.34375 C 12.054688 -22.976562 11.039062 -20.570312 10.0625 -18.125 C 9.09375 -15.6875 8.085938 -13.050781 7.046875 -10.21875 L 19.203125 -10.21875 C 18.160156 -13.050781 17.144531 -15.6875 16.15625 -18.125 C 15.164062 -20.570312 14.148438 -22.976562 13.109375 -25.34375 Z M 13.109375 -25.34375 "/></g></g></g><g fill="#1d1d1b" fill-opacity="1"><g transform="translate(178.79936, 101.092638)"><g><path d="M 11.859375 -28.890625 C 16.117188 -28.890625 19.390625 -28.140625 21.671875 -26.640625 C 23.953125 -25.140625 25.09375 -22.6875 25.09375 -19.28125 C 25.09375 -15.84375 23.9375 -13.363281 21.625 -11.84375 C 19.320312 -10.320312 16.03125 -9.5625 11.75 -9.5625 L 9.71875 -9.5625 L 9.71875 0 L 3.296875 0 L 3.296875 -28.140625 C 4.691406 -28.410156 6.171875 -28.601562 7.734375 -28.71875 C 9.304688 -28.832031 10.679688 -28.890625 11.859375 -28.890625 Z M 12.28125 -23.40625 C 11.8125 -23.40625 11.347656 -23.390625 10.890625 -23.359375 C 10.441406 -23.335938 10.050781 -23.3125 9.71875 -23.28125 L 9.71875 -15.046875 L 11.75 -15.046875 C 13.96875 -15.046875 15.640625 -15.347656 16.765625 -15.953125 C 17.890625 -16.554688 18.453125 -17.679688 18.453125 -19.328125 C 18.453125 -20.117188 18.304688 -20.773438 18.015625 -21.296875 C 17.734375 -21.816406 17.320312 -22.234375 16.78125 -22.546875 C 16.25 -22.867188 15.597656 -23.09375 14.828125 -23.21875 C 14.054688 -23.34375 13.207031 -23.40625 12.28125 -23.40625 Z M 12.28125 -23.40625 "/></g></g></g><g fill="#1d1d1b" fill-opacity="1"><g transform="translate(205.32222, 101.092638)"><g><path d="M 22.375 -5.515625 L 22.375 0 L 3.296875 0 L 3.296875 -28.546875 L 9.71875 -28.546875 L 9.71875 -5.515625 Z M 22.375 -5.515625 "/></g></g></g><g fill="#1d1d1b" fill-opacity="1"><g transform="translate(228.50913, 101.092638)"><g><path d="M 22.421875 0 C 22.117188 -0.988281 21.78125 -2.003906 21.40625 -3.046875 C 21.03125 -4.085938 20.664062 -5.132812 20.3125 -6.1875 L 9.1875 -6.1875 C 8.832031 -5.132812 8.46875 -4.085938 8.09375 -3.046875 C 7.726562 -2.003906 7.394531 -0.988281 7.09375 0 L 0.40625 0 C 1.476562 -3.070312 2.492188 -5.910156 3.453125 -8.515625 C 4.421875 -11.128906 5.363281 -13.585938 6.28125 -15.890625 C 7.195312 -18.203125 8.101562 -20.394531 9 -22.46875 C 9.894531 -24.550781 10.820312 -26.578125 11.78125 -28.546875 L 17.921875 -28.546875 C 18.859375 -26.578125 19.78125 -24.550781 20.6875 -22.46875 C 21.59375 -20.394531 22.503906 -18.203125 23.421875 -15.890625 C 24.335938 -13.585938 25.273438 -11.128906 26.234375 -8.515625 C 27.203125 -5.910156 28.222656 -3.070312 29.296875 0 Z M 14.703125 -22.078125 C 14.566406 -21.671875 14.359375 -21.109375 14.078125 -20.390625 C 13.804688 -19.679688 13.492188 -18.859375 13.140625 -17.921875 C 12.785156 -16.984375 12.394531 -15.953125 11.96875 -14.828125 C 11.539062 -13.703125 11.109375 -12.523438 10.671875 -11.296875 L 18.78125 -11.296875 C 18.34375 -12.523438 17.914062 -13.703125 17.5 -14.828125 C 17.09375 -15.953125 16.703125 -16.984375 16.328125 -17.921875 C 15.960938 -18.859375 15.640625 -19.679688 15.359375 -20.390625 C 15.085938 -21.109375 14.867188 -21.671875 14.703125 -22.078125 Z M 14.703125 -22.078125 "/></g></g></g><g fill="#1d1d1b" fill-opacity="1"><g transform="translate(258.203197, 101.092638)"><g><path d="M 24.46875 -28.546875 L 24.46875 -23.078125 L 15.859375 -23.078125 L 15.859375 0 L 9.4375 0 L 9.4375 -23.078125 L 0.828125 -23.078125 L 0.828125 -28.546875 Z M 24.46875 -28.546875 "/></g></g></g><g fill="#1d1d1b" fill-opacity="1"><g transform="translate(283.490509, 101.092638)"><g><path d="M 17.21875 -23.609375 C 14.226562 -23.609375 12.066406 -22.773438 10.734375 -21.109375 C 9.398438 -19.453125 8.734375 -17.179688 8.734375 -14.296875 C 8.734375 -12.898438 8.894531 -11.628906 9.21875 -10.484375 C 9.550781 -9.347656 10.046875 -8.363281 10.703125 -7.53125 C 11.367188 -6.707031 12.195312 -6.066406 13.1875 -5.609375 C 14.175781 -5.160156 15.328125 -4.9375 16.640625 -4.9375 C 17.359375 -4.9375 17.96875 -4.953125 18.46875 -4.984375 C 18.976562 -5.015625 19.425781 -5.070312 19.8125 -5.15625 L 19.8125 -15.078125 L 26.25 -15.078125 L 26.25 -0.953125 C 25.476562 -0.648438 24.238281 -0.328125 22.53125 0.015625 C 20.832031 0.359375 18.734375 0.53125 16.234375 0.53125 C 14.085938 0.53125 12.140625 0.203125 10.390625 -0.453125 C 8.648438 -1.109375 7.160156 -2.066406 5.921875 -3.328125 C 4.691406 -4.597656 3.738281 -6.148438 3.0625 -7.984375 C 2.394531 -9.828125 2.0625 -11.929688 2.0625 -14.296875 C 2.0625 -16.679688 2.429688 -18.796875 3.171875 -20.640625 C 3.910156 -22.484375 4.925781 -24.039062 6.21875 -25.3125 C 7.507812 -26.59375 9.023438 -27.5625 10.765625 -28.21875 C 12.515625 -28.882812 14.378906 -29.21875 16.359375 -29.21875 C 17.703125 -29.21875 18.914062 -29.125 20 -28.9375 C 21.082031 -28.757812 22.015625 -28.554688 22.796875 -28.328125 C 23.585938 -28.097656 24.234375 -27.859375 24.734375 -27.609375 C 25.242188 -27.359375 25.609375 -27.164062 25.828125 -27.03125 L 23.984375 -21.875 C 23.097656 -22.34375 22.082031 -22.75 20.9375 -23.09375 C 19.800781 -23.4375 18.5625 -23.609375 17.21875 -23.609375 Z M 17.21875 -23.609375 "/></g></g></g><g fill="#1d1d1b" fill-opacity="1"><g transform="translate(312.402065, 101.092638)"><g><path d="M 3.296875 0 L 3.296875 -28.546875 L 22.578125 -28.546875 L 22.578125 -23.15625 L 9.71875 -23.15625 L 9.71875 -17.546875 L 21.140625 -17.546875 L 21.140625 -12.28125 L 9.71875 -12.28125 L 9.71875 -5.390625 L 23.53125 -5.390625 L 23.53125 0 Z M 3.296875 0 "/></g></g></g><g fill="#1d1d1b" fill-opacity="1"><g transform="translate(337.359904, 101.092638)"><g><path d="M 11.078125 -4.90625 C 11.984375 -4.90625 12.734375 -4.976562 13.328125 -5.125 C 13.921875 -5.28125 14.394531 -5.488281 14.75 -5.75 C 15.101562 -6.007812 15.347656 -6.316406 15.484375 -6.671875 C 15.628906 -7.023438 15.703125 -7.425781 15.703125 -7.875 C 15.703125 -8.800781 15.257812 -9.570312 14.375 -10.1875 C 13.5 -10.8125 11.988281 -11.484375 9.84375 -12.203125 C 8.914062 -12.523438 7.984375 -12.898438 7.046875 -13.328125 C 6.109375 -13.753906 5.269531 -14.289062 4.53125 -14.9375 C 3.789062 -15.582031 3.1875 -16.363281 2.71875 -17.28125 C 2.25 -18.207031 2.015625 -19.328125 2.015625 -20.640625 C 2.015625 -21.960938 2.257812 -23.148438 2.75 -24.203125 C 3.25 -25.265625 3.953125 -26.164062 4.859375 -26.90625 C 5.765625 -27.644531 6.863281 -28.210938 8.15625 -28.609375 C 9.445312 -29.015625 10.90625 -29.21875 12.53125 -29.21875 C 14.445312 -29.21875 16.101562 -29.007812 17.5 -28.59375 C 18.90625 -28.1875 20.0625 -27.734375 20.96875 -27.234375 L 19.125 -22.171875 C 18.320312 -22.578125 17.429688 -22.9375 16.453125 -23.25 C 15.484375 -23.570312 14.3125 -23.734375 12.9375 -23.734375 C 11.394531 -23.734375 10.285156 -23.519531 9.609375 -23.09375 C 8.941406 -22.664062 8.609375 -22.015625 8.609375 -21.140625 C 8.609375 -20.617188 8.734375 -20.175781 8.984375 -19.8125 C 9.234375 -19.457031 9.582031 -19.132812 10.03125 -18.84375 C 10.488281 -18.5625 11.007812 -18.300781 11.59375 -18.0625 C 12.1875 -17.832031 12.84375 -17.59375 13.5625 -17.34375 C 15.039062 -16.789062 16.328125 -16.25 17.421875 -15.71875 C 18.523438 -15.1875 19.441406 -14.5625 20.171875 -13.84375 C 20.898438 -13.125 21.441406 -12.285156 21.796875 -11.328125 C 22.148438 -10.367188 22.328125 -9.203125 22.328125 -7.828125 C 22.328125 -5.160156 21.394531 -3.09375 19.53125 -1.625 C 17.664062 -0.15625 14.847656 0.578125 11.078125 0.578125 C 9.816406 0.578125 8.675781 0.5 7.65625 0.34375 C 6.644531 0.195312 5.75 0.015625 4.96875 -0.203125 C 4.1875 -0.421875 3.507812 -0.65625 2.9375 -0.90625 C 2.375 -1.15625 1.90625 -1.390625 1.53125 -1.609375 L 3.34375 -6.71875 C 4.1875 -6.25 5.234375 -5.828125 6.484375 -5.453125 C 7.734375 -5.085938 9.265625 -4.90625 11.078125 -4.90625 Z M 11.078125 -4.90625 "/></g></g></g><g fill="#1d1d1b" fill-opacity="1"><g transform="translate(361.329311, 101.092638)"><g><path d="M 22.375 -5.515625 L 22.375 0 L 3.296875 0 L 3.296875 -28.546875 L 9.71875 -28.546875 L 9.71875 -5.515625 Z M 22.375 -5.515625 "/></g></g></g><g fill="#1d1d1b" fill-opacity="1"><g transform="translate(384.51622, 101.092638)"><g><path d="M 22.421875 0 C 22.117188 -0.988281 21.78125 -2.003906 21.40625 -3.046875 C 21.03125 -4.085938 20.664062 -5.132812 20.3125 -6.1875 L 9.1875 -6.1875 C 8.832031 -5.132812 8.46875 -4.085938 8.09375 -3.046875 C 7.726562 -2.003906 7.394531 -0.988281 7.09375 0 L 0.40625 0 C 1.476562 -3.070312 2.492188 -5.910156 3.453125 -8.515625 C 4.421875 -11.128906 5.363281 -13.585938 6.28125 -15.890625 C 7.195312 -18.203125 8.101562 -20.394531 9 -22.46875 C 9.894531 -24.550781 10.820312 -26.578125 11.78125 -28.546875 L 17.921875 -28.546875 C 18.859375 -26.578125 19.78125 -24.550781 20.6875 -22.46875 C 21.59375 -20.394531 22.503906 -18.203125 23.421875 -15.890625 C 24.335938 -13.585938 25.273438 -11.128906 26.234375 -8.515625 C 27.203125 -5.910156 28.222656 -3.070312 29.296875 0 Z M 14.703125 -22.078125 C 14.566406 -21.671875 14.359375 -21.109375 14.078125 -20.390625 C 13.804688 -19.679688 13.492188 -18.859375 13.140625 -17.921875 C 12.785156 -16.984375 12.394531 -15.953125 11.96875 -14.828125 C 11.539062 -13.703125 11.109375 -12.523438 10.671875 -11.296875 L 18.78125 -11.296875 C 18.34375 -12.523438 17.914062 -13.703125 17.5 -14.828125 C 17.09375 -15.953125 16.703125 -16.984375 16.328125 -17.921875 C 15.960938 -18.859375 15.640625 -19.679688 15.359375 -20.390625 C 15.085938 -21.109375 14.867188 -21.671875 14.703125 -22.078125 Z M 14.703125 -22.078125 "/></g></g></g><g fill="#1d1d1b" fill-opacity="1"><g transform="translate(414.210288, 101.092638)"><g><path d="M 17.21875 -23.609375 C 14.226562 -23.609375 12.066406 -22.773438 10.734375 -21.109375 C 9.398438 -19.453125 8.734375 -17.179688 8.734375 -14.296875 C 8.734375 -12.898438 8.894531 -11.628906 9.21875 -10.484375 C 9.550781 -9.347656 10.046875 -8.363281 10.703125 -7.53125 C 11.367188 -6.707031 12.195312 -6.066406 13.1875 -5.609375 C 14.175781 -5.160156 15.328125 -4.9375 16.640625 -4.9375 C 17.359375 -4.9375 17.96875 -4.953125 18.46875 -4.984375 C 18.976562 -5.015625 19.425781 -5.070312 19.8125 -5.15625 L 19.8125 -15.078125 L 26.25 -15.078125 L 26.25 -0.953125 C 25.476562 -0.648438 24.238281 -0.328125 22.53125 0.015625 C 20.832031 0.359375 18.734375 0.53125 16.234375 0.53125 C 14.085938 0.53125 12.140625 0.203125 10.390625 -0.453125 C 8.648438 -1.109375 7.160156 -2.066406 5.921875 -3.328125 C 4.691406 -4.597656 3.738281 -6.148438 3.0625 -7.984375 C 2.394531 -9.828125 2.0625 -11.929688 2.0625 -14.296875 C 2.0625 -16.679688 2.429688 -18.796875 3.171875 -20.640625 C 3.910156 -22.484375 4.925781 -24.039062 6.21875 -25.3125 C 7.507812 -26.59375 9.023438 -27.5625 10.765625 -28.21875 C 12.515625 -28.882812 14.378906 -29.21875 16.359375 -29.21875 C 17.703125 -29.21875 18.914062 -29.125 20 -28.9375 C 21.082031 -28.757812 22.015625 -28.554688 22.796875 -28.328125 C 23.585938 -28.097656 24.234375 -27.859375 24.734375 -27.609375 C 25.242188 -27.359375 25.609375 -27.164062 25.828125 -27.03125 L 23.984375 -21.875 C 23.097656 -22.34375 22.082031 -22.75 20.9375 -23.09375 C 19.800781 -23.4375 18.5625 -23.609375 17.21875 -23.609375 Z M 17.21875 -23.609375 "/></g></g></g><g fill="#1d1d1b" fill-opacity="1"><g transform="translate(443.12183, 101.092638)"><g><path d="M 3.296875 0 L 3.296875 -28.546875 L 22.578125 -28.546875 L 22.578125 -23.15625 L 9.71875 -23.15625 L 9.71875 -17.546875 L 21.140625 -17.546875 L 21.140625 -12.28125 L 9.71875 -12.28125 L 9.71875 -5.390625 L 23.53125 -5.390625 L 23.53125 0 Z M 3.296875 0 "/></g></g></g><g fill="#1d1d1b" fill-opacity="1"><g transform="translate(468.079669, 101.092638)"><g><path d="M 22.453125 0 C 20.609375 -3.269531 18.613281 -6.5 16.46875 -9.6875 C 14.332031 -12.875 12.054688 -15.878906 9.640625 -18.703125 L 9.640625 0 L 3.296875 0 L 3.296875 -28.546875 L 8.53125 -28.546875 C 9.4375 -27.640625 10.4375 -26.523438 11.53125 -25.203125 C 12.632812 -23.890625 13.753906 -22.484375 14.890625 -20.984375 C 16.035156 -19.492188 17.171875 -17.941406 18.296875 -16.328125 C 19.421875 -14.722656 20.476562 -13.179688 21.46875 -11.703125 L 21.46875 -28.546875 L 27.859375 -28.546875 L 27.859375 0 Z M 22.453125 0 "/></g></g></g></svg>