<svg xmlns="http://www.w3.org/2000/svg" width="440.79565" height="133.54161" viewBox="0 0 440.79565 133.54161"><path d="M174.69,79.4816l-.12-7.05q-5.28,8.62-16.11,8.62a23.88007,23.88007,0,0,1-10.08-2.15,22.19009,22.19009,0,0,1-7.88-6.12,29.61,29.61,0,0,1-5.21-9.73,41.77011,41.77011,0,0,1-1.89-13,43.14055,43.14055,0,0,1,1.59-12.06,28.45011,28.45011,0,0,1,4.65-9.46,20.9,20.9,0,0,1,7.47-6.18,22.4399,22.4399,0,0,1,10.06-2.17q10.69,0,17.17,9.05V.4516h15v79Zm-12.7-10.93a11.41,11.41,0,0,0,9.23-4.59q3.71-4.57,3.7-12,0-18.83-12.82-18.82-13.17,0-13.17,17.88,0,7.76,3.65,12.64a11.24,11.24,0,0,0,9.41,4.88" fill="#1d1d1b"/><path d="M195.86.4516h15.29v14.23H195.86Zm0,21.17h15.29v57.86H195.86Z" fill="#1d1d1b"/><polygon points="235.63 79.482 214.92 21.622 231.98 21.622 244.09 59.852 256.32 21.622 272.44 21.622 251.62 79.482 235.63 79.482" fill="#1d1d1b"/><path d="M308.78,41.3816H322.9v16.47a28.15032,28.15032,0,0,1-1.35,8.75,20.52,20.52,0,0,1-4.23,7.45,20.00015,20.00015,0,0,1-7.27,5.11,26.48,26.48,0,0,1-10.5,1.88,27.7,27.7,0,0,1-10.8-1.88,20.48,20.48,0,0,1-7.37-5.11,19.36991,19.36991,0,0,1-4.16-7.41,30.2,30.2,0,0,1-1.29-8.94V5.9816H291.1v15.64h31.76v10.82H291.14v23.76q0,5.53,2,8.52t6.72,3q4.56,0,6.72-2.93c1.45-2,2.16-4.74,2.16-8.35Z" fill="#1d1d1b"/><path d="M364.76,79.4816a23.57028,23.57028,0,0,1-.93-5.17,18.93985,18.93985,0,0,1-7.18,4.88,27.13,27.13,0,0,1-10.35,1.86q-10,0-14.64-4.41a15.08006,15.08006,0,0,1-4.65-11.46c0-4.15.67-7.47,2-9.94a14.88989,14.88989,0,0,1,5.53-5.82,26.58015,26.58015,0,0,1,8.42-3.11q4.88-1,10.63-1.83c3.85-.54,6.44-1.27,7.77-2.17a5.38,5.38,0,0,0-.65-8.83,13.8401,13.8401,0,0,0-7.12-1.58q-5.28,0-7.58,2.35a10.99994,10.99994,0,0,0-2.88,6.23H328.9a26.08965,26.08965,0,0,1,1.48-8.27,15.84012,15.84012,0,0,1,4.36-6.47,20.38,20.38,0,0,1,7.81-4.17,40.60991,40.60991,0,0,1,11.74-1.47,38.35981,38.35981,0,0,1,11.55,1.52,18.67994,18.67994,0,0,1,7.6,4.43,16.89,16.89,0,0,1,4.16,7.17,33.70984,33.70984,0,0,1,1.28,9.7v36.57Zm-1.05-28.33a8.28,8.28,0,0,1-3.41,1.9,63.18978,63.18978,0,0,1-6.47,1.53q-6.58,1.29-9.05,3.29a7,7,0,0,0-2.48,5.76c0,4.31,2.48,6.47,7.41,6.47a14.99991,14.99991,0,0,0,5.48-1,13.39,13.39,0,0,0,7.29-6.7,11.08,11.08,0,0,0,1.11-4.88Z" fill="#1d1d1b"/><path d="M425.46,71.6416a12.12009,12.12009,0,0,1-5.94,6.12,21.55014,21.55014,0,0,1-9.93,2.2,26.06008,26.06008,0,0,1-12.06-2.53,22.12982,22.12982,0,0,1-7.88-6.65,27.13023,27.13023,0,0,1-4.35-9.52,45.001,45.001,0,0,1-1.36-11,36.38989,36.38989,0,0,1,2-12.3,29.42991,29.42991,0,0,1,5.44-9.57,23.99979,23.99979,0,0,1,8-6.12,22.75994,22.75994,0,0,1,9.88-2.17q10.81,0,16.23,8.7v-7.18h15.3v58.43a28.18983,28.18983,0,0,1-2.24,11.59,23.60994,23.60994,0,0,1-6.17,8.41,26.75007,26.75007,0,0,1-9.18,5.11,37.00006,37.00006,0,0,1-22.46.05,26.43979,26.43979,0,0,1-8.88-4.87,22.3696,22.3696,0,0,1-5.82-7.63,23.45012,23.45012,0,0,1-2.12-10.13h14.12a10,10,0,0,0,3.48,8.18q3.48006,2.88,9.27,2.88a16.29,16.29,0,0,0,10.4-3.35,10.94,10.94,0,0,0,4.25-9.1Zm-12.58-3.8a11.84,11.84,0,0,0,9.35-4.27q3.7-4.29,3.7-11.66,0-18.53-13.05-18.53t-13.06,17.59q0,7.74,3.71,12.3a11.51,11.51,0,0,0,9.35,4.57" fill="#1d1d1b"/><path d="M0,96.6316c0,4.51,4,8.17,8.71,8.17H60.65l28.05,28.74-.1-28.74h7.91a8.34,8.34,0,0,0,8.5-8.17V8.1716a8.34,8.34,0,0,0-8.5-8.17H0m23.79,88.15a8,8,0,0,1-7.86-8.1v-53.22l15.72,15.72v25.23a4.58,4.58,0,0,0,4.49,4.66h25.4l15.72,15.72Zm65.5-12-15.72-15.73v-25.24a4.57,4.57,0,0,0-4.4886-4.65l-.0014,0H43.67l-15.72-15.73H81.43A8,8,0,0,1,89.29023,22.939L89.29,22.9516Z" fill="#e63033"/><path d="M133.38,98.5816a3.56,3.56,0,1,1,3.56,3.57,3.44,3.44,0,0,1-3.56035-3.31528Q133.37509,98.709,133.38,98.5816Zm5.21,0a1.67,1.67,0,1,0-1.65,1.92,1.71,1.71,0,0,0,1.68-1.92Z" fill="#1d1d1b"/><path d="M148.98,98.0516v4h-1.87v-3.66c0-1.12-.48-1.64-1.31-1.64s-1.56.6-1.56,1.87v3.43h-1.86v-6.93h1.79v.81a2.75,2.75,0,0,1,2.14-.92C147.83,95.0516,148.98,95.9716,148.98,98.0516Z" fill="#1d1d1b"/><path d="M155.46,101.7216a2.61995,2.61995,0,0,1-1.53.43,2.2,2.2,0,0,1-2.42-2.48v-2.85h-1v-1.55h1v-1.69h1.87v1.69h1.61v1.55h-1.61v2.82c0,.59.3.92.8.92a1.19008,1.19008,0,0,0,.76-.26Z" fill="#1d1d1b"/><path d="M167.38,95.1216l-2.34,6.93h-1.8l-1.46-4.3-1.5,4.3h-1.81l-2.33-6.93h1.77l1.53,4.69,1.58-4.69h1.59l1.54,4.69,1.58-4.69Z" fill="#1d1d1b"/><path d="M168.64,93.0516a1.1,1.1,0,0,1,1.07814-1.12144q.04095-.00081.08187.00144a1.08,1.08,0,0,1,1.16624.98623q.00392.04679.00376.09377a1.12,1.12,0,0,1-1.0781,1.1604q-.04593.00168-.0919-.0004a1.1,1.1,0,0,1-1.15857-1.03813Q168.63918,93.09257,168.64,93.0516Zm.23,2.09h1.87v6.91h-1.87Z" fill="#1d1d1b"/><path d="M175.87,99.3316l-.91,1v1.72h-1.87v-9.56h1.87v5.41l2.75-2.78h2.23l-2.69,2.93,2.93,4h-2.27Z" fill="#1d1d1b"/><path d="M184.38,99.3316l-.91,1v1.72H181.6v-9.56h1.87v5.41l2.75-2.78h2.23l-2.66,2.93,2.93,4h-2.27Z" fill="#1d1d1b"/><path d="M196.19,99.1516H191.3a1.73,1.73,0,0,0,1.85,1.39,2.1,2.1,0,0,0,1.62-.67l1,1.16a3.25,3.25,0,0,1-2.67,1.12,3.46,3.46,0,0,1-3.69-3.57,3.41,3.41,0,0,1,3.24595-3.56652q.102-.00479.204-.00348a3.33,3.33,0,0,1,3.3806,3.27862q.00248.16085-.0106.32138A5.29182,5.29182,0,0,1,196.19,99.1516Zm-4.92-1.17h3.19a1.6,1.6,0,0,0-3.19,0Z" fill="#1d1d1b"/><path d="M198.08,92.4916h1.88v9.56h-1.88Z" fill="#1d1d1b"/><path d="M206.95,101.7216a2.60005,2.60005,0,0,1-1.53.43,2.2,2.2,0,0,1-2.42-2.48v-2.85h-1v-1.55h1v-1.69h1.88v1.69h1.61v1.55h-1.61v2.82c0,.59.3.92.8.92a1.19008,1.19008,0,0,0,.76-.26Z" fill="#1d1d1b"/><path d="M216.78,101.7216a2.57,2.57,0,0,1-1.52.43,2.2,2.2,0,0,1-2.42-2.48v-2.85h-1v-1.55h1v-1.69h1.88v1.69h1.66v1.55h-1.61v2.82c0,.59.3.92.8.92a1.21008,1.21008,0,0,0,.76-.26Z" fill="#1d1d1b"/><path d="M218.22,93.0516a1.1,1.1,0,0,1,1.07814-1.12144q.04094-.00081.08186.00144a1.08,1.08,0,0,1,1.16624.98623q.00391.04679.00376.09377a1.12,1.12,0,0,1-1.09868,1.14092q-.03566.00068-.07132-.00092a1.1,1.1,0,0,1-1.15837-1.03836Q218.22,93.08246,218.22,93.0516Zm.22,2.09h1.88v6.91h-1.88Z" fill="#1d1d1b"/><path d="M220.68,104.2716l.51-1.46a1.26,1.26,0,0,0,.79.25c.47,0,.77-.32.77-1v-6.93h1.88v6.92a2.33,2.33,0,0,1-2.45,2.62A2.6,2.6,0,0,1,220.68,104.2716Zm1.84-11.22A1.11,1.11,0,0,1,223.61831,91.93q.03587-.00038.07169.00157a1.07,1.07,0,0,1,1.15629.9761q.00438.05184.00371.1039a1.17,1.17,0,0,1-2.33,0Z" fill="#1d1d1b"/><path d="M233.55,92.4916v9.56h-1.79v-.8a2.41,2.41,0,0,1-2,.9,3.59,3.59,0,0,1,0-7.14,2.41,2.41,0,0,1,1.94.84v-3.36Zm-1.84,6.09a1.67,1.67,0,1,0-1.65,1.92,1.71,1.71,0,0,0,1.66236-1.75637q-.00229-.08207-.01239-.16363Z" fill="#1d1d1b"/><path d="M242.93,98.5816a3.27,3.27,0,0,1-2.956,3.55639q-.13165.01214-.264.01361a2.42,2.42,0,0,1-2-.9v.8h-1.8v-9.56h1.88v3.36a2.42,2.42,0,0,1,1.95-.84,3.27,3.27,0,0,1,3.20315,3.33551Q242.94078,98.46455,242.93,98.5816Zm-1.9,0a1.66,1.66,0,1,0-1.65,1.92,1.71,1.71,0,0,0,1.66238-1.75634Q241.0401,98.66318,241.03,98.5816Z" fill="#1d1d1b"/><path d="M251.09,99.1516h-4.9a1.74,1.74,0,0,0,1.86,1.39,2.13,2.13,0,0,0,1.62-.67l1,1.16a3.27,3.27,0,0,1-2.67,1.12,3.45993,3.45993,0,0,1-3.7-3.57,3.41,3.41,0,0,1,3.24579-3.56665q.107-.005.2142-.00335a3.32017,3.32017,0,0,1,3.36,3.6C251.12,98.7616,251.1,98.9816,251.09,99.1516Zm-4.92-1.17h3.21a1.59,1.59,0,0,0-1.59-1.45,1.57,1.57,0,0,0-1.62,1.45Z" fill="#1d1d1b"/><path d="M252.38,101.4116l.63-1.45a4.17,4.17,0,0,0,2.25.67c.86,0,1.19-.24,1.19-.63,0-1.13-3.91,0-3.91-2.74,0-1.32,1.1-2.25,3-2.25a4.99992,4.99992,0,0,1,2.49.61l-.65,1.43a3.5201,3.5201,0,0,0-1.87-.52c-.84,0-1.2.29-1.2.65,0,1.19,3.91,0,3.91,2.77,0,1.29-1.12,2.2-3.06,2.2A5.31993,5.31993,0,0,1,252.38,101.4116Z" fill="#1d1d1b"/><path d="M267.01,98.5816a3.26,3.26,0,0,1-2.93512,3.55531q-.142.01358-.28488.01469a2.44,2.44,0,0,1-2-.83v3.23h-1.88v-9.43h1.8v.8a2.42,2.42,0,0,1,2-.91,3.27,3.27,0,0,1,3.3,3.57Zm-1.9,0a1.66,1.66,0,1,0-1.65,1.92,1.71,1.71,0,0,0,1.66238-1.75634Q265.12011,98.66318,265.11,98.5816Z" fill="#1d1d1b"/><path d="M274.48,98.0516v4h-1.75v-.86a2.09,2.09,0,0,1-2,1,2.14,2.14,0,0,1-2.35-2.14c0-1.22.8-2.07,2.77-2.07h1.49c0-.87-.48-1.37-1.49-1.37a3,3,0,0,0-1.86.65l-.67-1.41a4.73,4.73,0,0,1,2.76-.8C273.38,95.0516,274.48,95.9916,274.48,98.0516Zm-1.88,1.77v-.71h-1.28c-.88,0-1.16.35-1.16.81s.4.84,1.06.84a1.37,1.37,0,0,0,1.38-.9Z" fill="#1d1d1b"/><path d="M280.8,95.0516v1.86h-.42c-1,0-1.73.61-1.73,1.94v3.2h-1.87v-6.93h1.79v.93A2.55,2.55,0,0,1,280.8,95.0516Z" fill="#1d1d1b"/><path d="M288.76,99.1516h-4.9a1.74,1.74,0,0,0,1.86,1.39,2.13,2.13,0,0,0,1.62-.67l1,1.16a3.27,3.27,0,0,1-2.67,1.12,3.45989,3.45989,0,0,1-3.69-3.57,3.41,3.41,0,0,1,3.24595-3.56652q.102-.00479.20407-.00348a3.33,3.33,0,0,1,3.38061,3.27862q.00243.16085-.01062.32138C288.8,98.7616,288.77,98.9816,288.76,99.1516Zm-4.92-1.17h3.19a1.6,1.6,0,0,0-3.19,0Z" fill="#1d1d1b"/><path d="M297.26,98.0516v4h-1.88v-3.66c0-1.12-.48-1.64-1.31-1.64s-1.56.6-1.56,1.87v3.43h-1.87v-6.93h1.79v.81a2.74,2.74,0,0,1,2.14-.92C296.11,95.0516,297.26,95.9716,297.26,98.0516Z" fill="#1d1d1b"/><path d="M306.22,92.4916v9.56h-1.79v-.8a2.4,2.4,0,0,1-2,.9,3.59,3.59,0,0,1,0-7.14,2.41,2.41,0,0,1,1.94.84v-3.36Zm-1.84,6.09a1.67,1.67,0,1,0-1.64,1.92,1.71,1.71,0,0,0,1.65213-1.766Q304.38956,98.65837,304.38,98.5816Z" fill="#1d1d1b"/><path d="M314.86,99.1516h-4.9a1.74,1.74,0,0,0,1.86,1.39,2.13,2.13,0,0,0,1.62-.67l1,1.16a3.27,3.27,0,0,1-2.67,1.12,3.45989,3.45989,0,0,1-3.69-3.57,3.41,3.41,0,0,1,3.24594-3.56652q.102-.00479.20407-.00348a3.33,3.33,0,0,1,3.38062,3.27862q.00243.16085-.01062.32138C314.9,98.7616,314.87,98.9816,314.86,99.1516Zm-4.92-1.17h3.19a1.6,1.6,0,0,0-3.19,0Z" fill="#1d1d1b"/><path d="M320.13,101.4116l.62-1.45a4.22,4.22,0,0,0,2.25.67c.87,0,1.19-.24,1.19-.63,0-1.13-3.91,0-3.91-2.74,0-1.32,1.11-2.25,3-2.25a4.99992,4.99992,0,0,1,2.49.61l-.63,1.43a3.47,3.47,0,0,0-1.86-.52c-.84,0-1.2.29-1.2.65,0,1.19,3.91,0,3.91,2.77,0,1.29-1.12,2.2-3.06,2.2A5.32,5.32,0,0,1,320.13,101.4116Z" fill="#1d1d1b"/><path d="M327.26,98.5816a3.56,3.56,0,1,1,3.56,3.57,3.44,3.44,0,0,1-3.56036-3.31528Q327.25511,98.709,327.26,98.5816Zm5.21,0a1.67,1.67,0,1,0-1.65,1.92,1.71,1.71,0,0,0,1.66239-1.75634Q332.4801,98.66318,332.47,98.5816Z" fill="#1d1d1b"/><path d="M338.28,95.2716h1.66v1.55h-1.56v5.23H336.5v-5.23h-1v-1.55h1v-.31a2.34,2.34,0,0,1,2.5-2.58,2.5,2.5,0,0,1,1.43.38l-.49,1.45a1.3,1.3,0,0,0-.76-.24c-.55,0-.85.32-.85,1Z" fill="#1d1d1b"/><path d="M345.65,101.7216a2.58,2.58,0,0,1-1.53.43,2.20993,2.20993,0,0,1-2.42-2.48v-2.85h-1v-1.55h1v-1.69h1.88v1.69h1.61v1.55h-1.61v2.82c0,.59.3.92.81.92a1.18,1.18,0,0,0,.75-.26Z" fill="#1d1d1b"/><path d="M357.58,95.1216l-2.34,6.93h-1.81l-1.45-4.3-1.51,4.3h-1.8l-2.29-6.93h1.76l1.53,4.69,1.59-4.69h1.59l1.54,4.69,1.57-4.69Z" fill="#1d1d1b"/><path d="M364.57,98.0516v4h-1.75v-.86a2.09,2.09,0,0,1-2,1,2.14993,2.14993,0,0,1-2.44-2.14c0-1.22.81-2.07,2.78-2.07h1.49c0-.87-.48-1.37-1.49-1.37a3,3,0,0,0-1.86.65l-.67-1.41a4.70993,4.70993,0,0,1,2.79-.84C363.43,95.0516,364.57,95.9916,364.57,98.0516Zm-1.88,1.77v-.71h-1.31c-.88,0-1.16.35-1.16.81s.4.84,1.06.84a1.37,1.37,0,0,0,1.41-.9Z" fill="#1d1d1b"/><path d="M370.88,95.0516v1.86h-.42c-1,0-1.72.61-1.72,1.94v3.2h-1.87v-6.93h1.79v.93A2.54,2.54,0,0,1,370.88,95.0516Z" fill="#1d1d1b"/><path d="M378.85,99.1516h-4.9a1.74,1.74,0,0,0,1.85,1.39,2.13,2.13,0,0,0,1.63-.67l1,1.16a3.27,3.27,0,0,1-2.67,1.12,3.45993,3.45993,0,0,1-3.7-3.57,3.41,3.41,0,0,1,3.24579-3.56665q.107-.005.2142-.00335a3.32017,3.32017,0,0,1,3.36,3.6C378.88,98.7616,378.86,98.9816,378.85,99.1516Zm-4.92-1.17h3.19a1.59,1.59,0,0,0-1.59-1.45A1.57,1.57,0,0,0,373.93,97.9816Z" fill="#1d1d1b"/></svg>