<svg id="b" xmlns="http://www.w3.org/2000/svg" width="56" height="56" viewBox="0 0 202.22222 202.3525"><g id="c"><rect width="202.22222" height="202.3525" fill="#1d1d1b"/><path d="m52.67129,69.66608l15.71595-5.84315v23.76574h27.18176v13.11618h-27.18176v27.65906c0,5.45318.86236,9.35285,2.59343,11.68947s4.67642,3.50335,8.83289,3.50335c2.85658,0,6.80456.00054,14.14297-2.01889,8.00072-2.20169,14.72679-6.14337,16.02667-6.66333l2.5966,12.46623c-1.81984.77993-4.68297,3.50087-14.70969,6.61261-7.82717,2.42912-16.15428,3.10952-20.13637,3.10952-4.84763,0-8.8963-.64677-12.14285-1.94666s-5.82096-3.18314-7.72323-5.64975c-1.90861-2.46662-3.24655-5.45318-4.02648-8.95971s-1.1699-7.50764-1.1699-12.00969v-58.83099Z" fill="#fff"/><path d="m106.95268,82.10207v-30.9693l15.71595-5.84315v23.76574h24.15571v13.11618l-39.87166-.06947Zm15.71595,8.86313v37.39871c0,5.45318.86553,9.35285,2.5966,11.68947s4.67325,3.50335,8.83289,3.50335c2.85341,0,5.38661-.29802,7.59641-.90675,2.20664-.60556,3.95673-1.16673,5.25662-1.68668l2.59977,12.46623c-1.81984.77993-4.20403,1.57889-7.14621,2.40321-2.94218.81798-6.40432,1.23014-10.38642,1.23014-4.8508,0-8.8963-.64677-12.14285-1.94666s-5.82096-3.18314-7.7264-5.64975-3.24655-5.45318-4.02331-8.95971c-.77993-3.50652-1.17307-7.50764-1.17307-12.00969v-37.60134l15.71595.06947Z" fill="#fff"/></g></svg>